<?xml version="1.0" encoding="UTF-8" standalone="no"?>
<!DOCTYPE svg PUBLIC "-//W3C//DTD SVG 1.1//EN" "http://www.w3.org/Graphics/SVG/1.1/DTD/svg11.dtd">
<svg width="100%" height="100%" viewBox="0 0 1024 1024" version="1.1" xmlns="http://www.w3.org/2000/svg" xmlns:xlink="http://www.w3.org/1999/xlink" xml:space="preserve" xmlns:serif="http://www.serif.com/" style="fill-rule:evenodd;clip-rule:evenodd;stroke-linejoin:round;stroke-miterlimit:2;">
    <g transform="matrix(1.97622,0,0,1.97622,284.734,0.158098)">
        <path d="M107.376,289.784L105.866,274.446L121.709,268.287L124.096,283.12L107.376,289.784ZM114.694,138.773L107.49,124.229L114.694,111.493L121.899,124.229L114.694,138.773ZM110.442,72.944L113.643,68.429L112.053,66.669L110.442,64.216L113.643,59.708L112.053,57.949L110.442,55.496L113.643,50.987L112.053,49.228L110.442,46.775L113.643,42.26L112.053,40.501L110.442,38.048C110.442,37.368 112.208,35.022 114.694,32.388C117.188,35.022 118.954,37.368 118.954,38.048C118.078,39.639 116.756,41.384 115.746,42.26L118.954,46.775C118.078,48.366 116.756,50.105 115.746,50.987L118.954,55.496C118.078,57.086 116.756,58.831 115.746,59.708L118.954,64.216C118.078,65.807 116.756,67.553 115.746,68.429L118.954,72.944C118.078,74.535 116.756,76.273 115.746,77.149L118.954,81.658C117.694,83.962 115.934,86.004 114.694,86.604L112.653,84.865L110.442,81.658L113.643,77.149L112.053,75.397L110.442,72.944ZM127.795,196.865L128.718,195.699C130.532,193.434 131.078,193.071 133.032,192.861C133.638,191.716 134.616,190.577 135.391,190.105L135.391,180.678C134.797,180.367 134.008,179.599 133.039,178.372L155.844,178.372L131.86,214.245L131.86,206.03C130.707,205.734 129.547,205.241 128.375,204.554L127.52,204.136C125.214,203.078 124.426,202.269 124.392,200.908C124.366,199.964 124.79,199.371 126.313,198.192L127.795,196.865ZM186.399,172.556L165.704,210.619C165.859,211.199 165.993,211.684 166.108,212.082L166.284,215.081L166.256,217.224C166.593,220.431 165.549,221.557 161.404,222.46L158.917,223.12L152.61,234.719C152.798,234.894 152.954,235.097 153.075,235.332L153.472,239.166C153.485,241.431 151.228,243.439 148.431,243.655C148.202,243.675 147.973,243.668 147.756,243.641L143.963,250.617L129.205,256.897L129.205,243.278L186.399,172.556ZM80.001,339.311C80.614,339.85 81.12,340.45 81.524,341.11C81.78,341.596 82.096,342.02 82.474,342.391C84.307,344.116 84.557,344.534 84.32,345.557C83.121,345.802 82.406,345.538 80.978,344.352L79.981,343.577C79.509,343.301 79.03,343.024 78.552,342.748C78.269,342.54 78.006,342.31 77.777,342.074L44.35,383.405L86.794,305.339L101.546,299.057L101.546,312.678L101.54,312.678L80.001,339.311ZM78.626,377.334L83.559,369.954C83.525,368.971 83.235,368.33 82.689,368.027L80.392,368.02C79.637,367.73 79.111,367.016 79.293,366.511L80.196,365.769L81.005,364.968L80.445,363.599L79.967,362.757C79.677,361.915 80.021,361.436 80.998,361.321C81.53,361.241 82.056,361.145 82.568,361.024C82.885,360.802 83.202,360.573 83.512,360.35C84.179,360.182 84.806,360.257 85.385,360.58C85.816,360.802 86.268,360.972 86.747,361.085L87.441,360.958L87.764,360.729C88.404,360.391 89.112,360.311 89.887,360.499L98.655,347.391L98.655,377.334L78.626,377.334ZM184.204,277.108C185.577,277.345 186.715,276.104 187.081,273.962C187.424,271.979 186.5,270.174 185.018,269.918C183.536,269.669 182.067,271.063 181.723,273.045C181.528,274.501 181.823,275.632 182.612,276.454C182.18,279.333 180.819,282.513 179.323,284.138C181.17,277.54 178.893,268.866 173.825,263.185C169.532,272.546 168.723,281.724 171.889,285.344L167.153,280.593C167.948,279.655 168.116,278.409 167.651,276.866C166.997,274.972 165.313,273.833 163.891,274.325C162.475,274.817 161.862,276.751 162.516,278.651C163.182,280.304 164.194,281.192 165.542,281.3L168.547,286.684C166.155,284.596 163.095,283.443 159.45,283.255C155.77,283.059 150.769,284.022 147.373,285.579C148.822,289.872 154.685,293.512 161.518,294.354C155.682,298.269 154.598,302.61 158.889,304.833L157.321,307.583C160.467,308.507 165.731,306.876 170.024,303.654C169.95,312.321 171.903,316.391 174.741,313.479C173.583,311.626 173.137,309.591 173.407,307.429C173.676,305.245 174.883,302.542 176.311,300.904C179.485,310.352 178.151,322.672 172.713,334.108C173.278,332.241 172.948,329.257 171.911,326.904L170.206,330.307L169.942,328.932L169.356,327.274C168.137,327.835 167.038,331.79 166.708,336.839C164.174,337.552 157.63,332.693 150.911,325.104C150.217,326.952 151.579,330.753 154.193,334.277L150.567,332.073L144.292,329.553C145.014,331.548 148.303,334.526 152.231,336.737L149.766,336.839L147.414,337.781C150.688,342.984 157.387,344.352 163.587,341.091L165.387,342.317C164.605,342.763 163.999,344.655 163.918,346.906C160.366,349.716 156.073,358.714 153.559,368.627C153.135,372.319 151.154,375.285 147.737,377.334L130.741,377.334L130.741,368.135C130.47,367.312 130.261,366.725 130.108,366.376C129.44,365.001 128.623,363.7 127.654,362.481C126.299,360.58 125.012,358.593 123.792,356.516C122.713,355.1 121.44,353.901 119.977,352.904C119.614,352.669 119.25,352.432 118.899,352.19C118.577,351.805 118.26,351.429 117.942,351.052L115.429,349.272L112.14,346.711C110.786,345.323 109.721,343.786 108.933,342.088L108.649,340.025L108.521,338.415L109.499,338.968L111.493,339.938C112.248,340.052 112.659,340.504 113.38,341.987L114.722,343.915C115.658,344.663 116.635,345.349 117.653,345.97L120.868,346.61C121.528,346.555 122.182,346.555 122.829,346.616C123.967,346.932 125.04,347.425 126.036,348.098C127.358,348.8 128.531,349.696 129.561,350.795C129.965,351.26 130.356,351.731 130.741,352.217L130.741,299.395L157.893,258.798C157.657,258.367 157.42,257.935 157.178,257.497C156.68,256.534 156.463,255.516 156.539,254.445C156.612,253.238 157.002,252.511 158.344,251.048L159.538,249.612L160.016,248.682L161.013,247.415L162.387,246.997L163.655,246.668C164.571,246.189 165.192,245.468 166.27,243.608L167.698,241.31L170.01,238.412C170.536,238.095 171.163,237.913 171.889,237.866L191.784,208.113C191.069,207.04 190.254,206.104 189.352,205.309L188.186,204.662C187.168,204.203 186.959,203.853 187.034,202.701C187.108,201.555 187.43,200.497 188.002,199.54L189.6,198.421L190.295,198.2L191.379,197.674C192.708,196.932 193.26,196.952 194.116,197.754C195.018,196.919 195.424,196.056 195.956,193.866L196.327,192.471C196.442,191.696 196.764,191.076 197.297,190.611C197.655,190.53 197.944,190.49 198.159,190.49C198.34,190.361 198.543,190.2 198.758,190.004L199.36,189.357C199.959,188.582 200.295,188.468 200.95,188.825L201.112,189.115L201.489,189.755C201.758,189.863 202.034,189.957 202.317,190.017C202.668,190.314 202.958,190.664 203.186,191.069L224.065,159.853L222.792,159.442L220.418,158.337C219.752,157.575 219.106,156.793 218.471,155.978L217.415,152.871L217.292,151.88L195.29,151.88C194.971,152.305 194.567,152.648 194.096,152.918C192.823,153.639 191.575,153.754 188.819,153.39L188.247,153.316L187.499,153.295L186.286,152.77L185.813,152.231L185.073,151.908L184.452,151.887C184.446,151.887 184.438,151.887 184.432,151.88L128.543,151.88L128.543,134.305C136.213,129.088 141.854,124.964 142.164,124.351C144.159,130.949 145.028,136.374 144.26,137.451L177.788,146.354C174.243,137.283 168.325,126.15 163.506,119.465C158.729,112.841 154.193,108.931 150.022,107.847L149.94,102.961L148.969,99.206C141.45,107.496 131.954,113.568 126.05,113.871C125.821,111.263 128.806,108.123 133.254,106.276L133.261,101.013L127.236,99.928L124.419,98.29L123.105,98.29L123.105,95.797L121.602,95.797L121.602,27.299C122.471,22.986 125.767,19.253 129.554,18.269C129.292,17.109 128.502,15.6 127.654,14.636L124.649,12.695L119.856,0.43L109.545,0.43L104.748,12.695C102.463,13.349 100.434,15.654 99.848,18.269C103.635,19.253 106.924,22.986 107.793,27.299L107.793,95.797L106.291,95.797L106.291,98.29L104.983,98.29C104.289,99.516 100.63,100.642 96.134,101.013L96.141,106.276C100.589,108.123 103.575,111.263 103.346,113.871C100.374,113.717 96.869,112.362 92.926,109.835C88.943,107.294 83.768,102.886 80.425,99.206C79.502,101.201 79.071,104.781 79.374,107.847C73.989,109.248 67.984,115.374 61.69,125.887L61.832,126.851C62.472,131.184 62.546,132.957 62.128,134.183L60.221,134.142L57.128,134.21L51.608,146.354L85.136,137.451L85.102,133.24L87.232,124.351C87.542,124.964 93.183,129.088 100.859,134.305L100.859,151.88L63.389,151.88C63.051,152.366 62.694,152.871 62.337,153.39C61.603,154.341 60.841,154.724 58.907,155.129L55.955,156.248L54.183,155.668C52.552,155.344 52.066,154.994 51.959,154.05C52,153.309 52.323,152.581 52.943,151.887L44.768,151.887C44.37,152.662 43.832,153.039 42.349,153.578C40.738,154.172 40.125,154.616 39.653,155.533L39.235,157.124L38.346,159.347L37.537,160.042L36.418,161.841C36.668,161.935 36.944,162.016 37.24,162.091C37.382,162.616 37.335,163.141 37.099,163.667C35.313,163.909 34.423,162.434 34.909,160.042L36.998,155.951L36.634,154.462L36.256,153.875C35.98,153.181 35.825,152.521 35.785,151.88L27.617,151.88L18.849,175.151C19.159,175.367 19.395,175.643 19.564,175.973C20.008,177.308 19.766,178.467 18.836,179.444C18.021,180.562 17.09,181.6 16.059,182.544L8.417,202.822C8.848,204.015 9.664,204.904 10.85,205.484L11.706,205.578C12.521,205.551 12.676,205.747 12.467,206.562C12.298,207.196 11.928,207.405 10.843,207.445L10.189,207.506C9.36,207.776 8.625,208.065 7.985,208.382C7.467,208.49 6.9,208.51 6.301,208.442L0,225.156L42.834,193.124C42.45,189.101 42.901,187.773 44.842,187.201L44.613,185.414L44.431,183.453C45.301,183.346 46.116,183.447 46.864,183.763L47.161,183.049C47.707,181.647 48.077,181.56 49.229,182.564L49.202,182.598L50.261,184.201L50.314,184.188C50.355,184.889 50.321,185.556 50.2,186.197C50.22,186.608 50.267,187.045 50.341,187.511L62.56,178.372L70.485,178.372C71.462,177.928 72.486,177.624 73.558,177.449L75.485,176.714L77.494,176.007C78.316,175.926 79.111,176.027 79.866,176.31L80.573,177.246C81.112,177.294 81.658,177.301 82.211,177.267C83.384,177.456 84.145,177.82 84.489,178.372L98.533,178.372C97.556,179.599 96.774,180.36 96.182,180.67L96.182,190.098C98.48,191.48 99.949,195.167 99.713,199.008L99.713,226.962C99.881,226.948 100.043,226.948 100.219,226.948C102.712,226.929 103.757,226.389 105.765,224.064L107.443,222.265L111.628,220.358L113.3,219.826C115.355,219.171 117.397,218.497 119.418,217.796C119.358,219.703 118.738,220.587 116.602,221.813C115.018,222.723 114.398,223.283 113.899,224.252C113.441,225.479 112.982,226.719 112.524,227.966L110.408,230.588L108.898,232.198C107.942,233.614 107.113,235.055 106.419,236.518C105.529,238.115 104.734,238.951 102.618,240.514L100.509,242.179C100.246,242.421 99.976,242.704 99.713,243.022L99.713,262.302L77.258,295.884C76.57,299.145 74.65,302.016 72.176,303.479L52.869,332.349C53.259,338.442 52.403,341.388 49.789,342.991L46.547,344.392L44.195,345.329L14.226,390.132C14.388,390.319 14.509,390.563 14.59,390.872L14.226,392.686L13.795,393.919L13.7,395.294C13.64,397.497 13.262,398.259 11.975,398.764C11.894,398.671 11.807,398.555 11.726,398.434C10.91,398.792 10.155,399.263 9.468,399.85L8.599,400.698L7.23,401.481C7.056,401.481 6.853,401.487 6.638,401.493L4.501,404.675L32.172,404.675C32.26,404.573 32.354,404.46 32.449,404.345L34.666,403.536L35.818,403.415C36.991,403.179 37.106,403.052 37.887,401.13C38.318,400.071 38.73,399.823 40.131,399.763L41.412,399.708L45.476,399.141C46.635,398.638 47.841,398.638 49.108,399.149C51.898,400.28 54.021,402.128 55.47,404.682L73.241,404.682C73.255,404.628 73.268,404.573 73.275,404.52C73.524,403.415 73.565,403.388 74.832,403.374L77.042,403.057L79.954,402.774C81.483,402.97 82.73,403.61 83.701,404.682L98.648,404.682L98.695,425.128C98.682,425.141 98.662,425.155 98.648,425.169L98.675,464.317L101.58,476.718C102.692,476.764 103.764,476.891 104.794,477.087C106.742,477.466 107.214,478.173 107.281,480.862L107.302,481.583C107.571,481.811 107.78,482.114 107.928,482.493C108.562,483.854 109.256,485.202 110.011,486.542L110.004,487.548L109.849,488.052L109.97,490.122L109.263,490.97L108.548,491.772C108.407,492.427 108.333,493.093 108.326,493.766C108.11,494.286 107.834,494.798 107.484,495.282C107.437,495.384 107.382,495.479 107.329,495.573L114.701,518L125.323,485.141L128.186,475.395L130.746,463.817L130.746,447.643C130.341,447.247 129.91,446.876 129.453,446.54L128.524,445.878C123.368,442.225 122.202,440.048 123.866,437.198L125.572,432.71L125.909,431.362C126.09,430.708 126.374,430.089 126.758,429.509C127.377,428.807 127.937,428.255 128.429,427.872C129.089,427.009 129.265,426.321 129.216,424.718L129.406,422.466C129.703,421.55 130.147,420.97 130.746,420.714L130.746,404.675L146.073,404.675C146.517,403.987 147.03,403.475 147.602,403.138L150.897,402.491L153.034,402.222C153.823,401.96 154.659,401.749 155.541,401.602L158.23,401.149C159.881,401.36 160.965,402.579 161.356,404.682L181.352,404.682C182.073,404.223 182.62,403.583 182.991,402.761L184.823,402.302L186.454,401.839C187.573,401.77 188.698,401.77 189.831,401.839C191.973,401.884 193.881,402.477 195.557,403.616C196.186,403.968 196.717,404.317 197.149,404.682L206.288,404.682L208.079,399.161C208.059,399.155 208.04,399.141 208.018,399.128L207.036,398.698C205.04,397.874 204.569,397.208 204.905,395.679C205.108,395.632 205.303,395.591 205.506,395.563C205.606,395.091 205.606,394.612 205.506,394.134C202.784,392.97 202.034,391.938 202.438,389.895C202.735,388.399 203.139,387.907 204.737,387.139L205.936,386.513C206.489,386.055 207.042,385.575 207.594,385.077L209.28,384.349L210.176,384.139C211.348,383.757 212.432,383.264 213.43,382.644L229.395,333.381L205.229,354.327C205.256,354.34 205.284,354.353 205.311,354.366L206.219,355.013L207.702,355.862L208.895,356.057L210.444,356.415C212.014,357.251 212.217,357.925 211.417,359.683L210.809,361.766C210.459,361.786 210.108,361.806 209.764,361.819C209.508,363.593 207.163,365.438 204.528,365.944C202.129,366.409 200.573,365.52 200.438,363.612L201.118,360.917C200.889,360.29 200.491,359.623 199.918,358.93L178.67,377.341L159.996,377.341C158.776,376.208 157.94,374.874 157.508,373.385C157.077,371.876 157.071,369.927 157.502,368.675C159.443,362.022 162.772,354.286 165.528,349.993C165.636,351.017 167.227,351.307 169.376,350.686C169.323,352.479 170.266,352.729 171.647,351.3C173.03,349.865 173.17,346.899 171.991,344.137C173.327,346.286 178.204,347.917 183.778,348.065C183.778,347.095 182.991,345.72 181.864,344.75C182.936,344.339 183.69,343.253 183.69,342.128C178.94,343.563 175.758,343.166 176.014,341.184L176.817,339.856L179.256,339.513C187.243,340.018 193.456,338.36 194.264,335.497C192.518,336.926 185.618,337.465 177.584,336.805C183.67,336.649 187.249,334.405 186.225,331.386C186.124,332.208 184.459,333.367 182.208,334.182C183.489,333.212 184.358,331.223 184.303,329.384C183.588,330.61 181.055,332.134 178.192,333.051C183.973,320.98 192.182,313.278 198.012,314.45C197.809,317.772 200.592,320.995 204.737,322.221C208.315,323.09 210.196,324.539 209.28,325.718C211.934,324.235 210.6,322.065 206.045,320.481C210.903,320.638 213.579,318.972 212.508,316.458C213.276,314.214 212.547,312.186 210.762,311.579C214.651,311.269 216.491,309.382 215.215,307.03C215,309.18 212.729,309.227 206.745,307.206C204.682,306.512 202.877,306.593 201.374,307.455C199.858,308.317 198.469,310.278 198.012,312.186C194.663,311.491 191.225,312.556 187.782,315.353C184.311,318.171 180.268,323.589 178.016,328.427C181.036,317.941 181.542,306.767 179.243,301.443C181.44,305.432 186.319,306.949 191.03,305.11L190.524,303.169L190.59,300.311C190.692,298.573 189.284,296.255 187.182,294.724C192.862,295.13 197.127,297.44 197.485,300.311C199.325,295.965 195.067,291.632 187.194,289.845C194.333,288.747 199.959,282.904 200.774,275.726C195.301,275.565 188.92,278.133 182.834,282.937C183.745,280.478 184.297,278.065 184.176,277.108" style="fill:rgb(181,156,100);fill-rule:nonzero;"/>
    </g>
</svg>
